<svg width="64" height="65" viewBox="0 0 64 65" fill="none" xmlns="http://www.w3.org/2000/svg">
<rect width="64" height="64" rx="4" fill="#A11642"/>
<path d="M11.2173 6.29395H28.5791V9.39697H21.4497V28H18.3467V9.39697H11.2173V6.29395ZM50.9058 24.897C50.9058 25.3208 50.825 25.7244 50.6636 26.1079C50.5021 26.4813 50.2801 26.8092 49.9976 27.0918C49.715 27.3743 49.382 27.5964 48.9985 27.7578C48.6252 27.9193 48.2266 28 47.8027 28H35.4058C34.9819 28 34.5783 27.9193 34.1948 27.7578C33.8215 27.5964 33.4935 27.3743 33.2109 27.0918C32.9284 26.8092 32.7064 26.4813 32.5449 26.1079C32.3835 25.7244 32.3027 25.3208 32.3027 24.897V9.39697C32.3027 8.97314 32.3835 8.57454 32.5449 8.20117C32.7064 7.81771 32.9284 7.48975 33.2109 7.21729C33.4935 6.93473 33.8215 6.71273 34.1948 6.55127C34.5783 6.37972 34.9819 6.29395 35.4058 6.29395H47.8027C48.2266 6.29395 48.6252 6.37972 48.9985 6.55127C49.382 6.71273 49.715 6.93473 49.9976 7.21729C50.2801 7.48975 50.5021 7.81771 50.6636 8.20117C50.825 8.57454 50.9058 8.97314 50.9058 9.39697V24.897ZM35.4058 9.39697V24.897H47.8027V9.39697H35.4058ZM21.9189 54.897C23.362 54.897 24.472 54.5085 25.249 53.7314C26.026 52.9544 26.4146 51.8444 26.4146 50.4014V43.8926C26.4146 43.1862 26.3136 42.5555 26.1118 42.0005C25.91 41.4455 25.6123 40.9762 25.2188 40.5928C24.8353 40.1992 24.366 39.9015 23.811 39.6997C23.256 39.4979 22.6253 39.397 21.9189 39.397H13.9873V54.897H21.9189ZM10.8843 58V36.2939H21.9189C23.0794 36.2939 24.1239 36.4756 25.0522 36.8389C25.9907 37.1921 26.7879 37.7017 27.4438 38.3677C28.1099 39.0236 28.6195 39.8208 28.9727 40.7593C29.3359 41.6978 29.5176 42.7422 29.5176 43.8926V50.4014C29.5176 51.5518 29.3359 52.5962 28.9727 53.5347C28.6195 54.4731 28.1099 55.2754 27.4438 55.9414C26.7879 56.5973 25.9907 57.1069 25.0522 57.4702C24.1239 57.8234 23.0794 58 21.9189 58H10.8843ZM53.1006 54.897C53.1006 55.3208 53.0199 55.7244 52.8584 56.1079C52.6969 56.4813 52.4749 56.8092 52.1924 57.0918C51.9098 57.3743 51.5768 57.5964 51.1934 57.7578C50.82 57.9193 50.4214 58 49.9976 58H37.6006C37.1768 58 36.7731 57.9193 36.3896 57.7578C36.0163 57.5964 35.6883 57.3743 35.4058 57.0918C35.1232 56.8092 34.9012 56.4813 34.7397 56.1079C34.5783 55.7244 34.4976 55.3208 34.4976 54.897V39.397C34.4976 38.9731 34.5783 38.5745 34.7397 38.2012C34.9012 37.8177 35.1232 37.4897 35.4058 37.2173C35.6883 36.9347 36.0163 36.7127 36.3896 36.5513C36.7731 36.3797 37.1768 36.2939 37.6006 36.2939H49.9976C50.4214 36.2939 50.82 36.3797 51.1934 36.5513C51.5768 36.7127 51.9098 36.9347 52.1924 37.2173C52.4749 37.4897 52.6969 37.8177 52.8584 38.2012C53.0199 38.5745 53.1006 38.9731 53.1006 39.397V54.897ZM37.6006 39.397V54.897H49.9976V39.397H37.6006Z" fill="white"/>
<circle cx="41.5" cy="13.5" r="2.5" fill="white"/>
<circle cx="43.5" cy="43.5" r="2.5" fill="white"/>
</svg>
